<svg width="512" height="512" viewBox="0 0 512 512" fill="none" xmlns="http://www.w3.org/2000/svg">
<g clip-path="url(#clip0_1_2)">
<rect width="512" height="512" fill="black"/>
<rect x="31.5" y="31.5" width="449" height="449" stroke="#C2410C" stroke-width="15"/>
<path d="M203.796 138.294H235.188V360H203.796V264.843H141.339V360H110.274V138.294H141.339V237.375H203.796V138.294ZM371.174 138.294H401.585V360H368.885C334.659 272.582 312.314 214.594 301.85 186.036C301.85 188.434 302.286 193.448 303.158 201.078C304.902 220.044 305.774 241.081 305.774 264.189V360H275.69V138.294H308.717C339.019 215.03 357.44 262.554 363.98 280.866C370.52 299.178 374.226 309.533 375.098 311.931C375.098 309.969 374.444 300.377 373.136 283.155C372.046 265.715 371.392 248.929 371.174 232.797V138.294Z" fill="#C2410C"/>
</g>
<defs>
<clipPath id="clip0_1_2">
<rect width="512" height="512" fill="white"/>
</clipPath>
</defs>
</svg>
